<svg width="57" height="59" viewBox="0 0 57 59" fill="none" xmlns="http://www.w3.org/2000/svg">
<path d="M19.0239 55.2126C20.8698 53.3667 21.9302 51.0103 22.2051 48.5752C22.5782 45.3352 21.4982 41.9771 19.0239 39.5029C17.5512 38.0301 15.7446 37.0483 13.8398 36.5967C10.2069 35.6737 6.18133 36.6358 3.31431 39.5029C1.33098 41.4863 0.250937 44.0193 0.113475 46.6311C0.0152998 47.7503 0.113475 48.909 0.408058 50.0282C0.859703 51.9333 1.84154 53.7398 3.31431 55.2126C7.6541 59.5522 14.6841 59.5522 19.0239 55.2126ZM15.3322 45.3155C16.4711 45.3155 17.4137 46.2582 17.4137 47.3971C17.3941 48.5555 16.4711 49.4784 15.3125 49.4981L13.2507 49.4784L13.2703 51.4619C13.2507 52.6206 12.3277 53.5433 11.1691 53.5629C10.0105 53.5433 9.08762 52.6203 9.06796 51.4619L9.08761 49.4784L7.02571 49.4981C5.86712 49.4784 4.9442 48.5555 4.92454 47.3971C4.9442 46.8276 5.17984 46.3169 5.55294 45.9437C5.92604 45.5708 6.4366 45.3352 7.00608 45.3155H9.08761V43.1554C9.08761 42.5662 9.32325 42.0558 9.69635 41.6826C10.0695 41.3095 10.58 41.0738 11.1691 41.0738C12.3081 41.0738 13.2507 42.0165 13.2507 43.1554V45.3155H15.3322Z" fill="#16056B"/>
<path d="M38.5295 5.56919V16.1221H34.3639V5.56919C34.3639 4.81936 33.6975 4.45833 33.253 4.45833C33.1143 4.45833 32.9753 4.48612 32.8364 4.54164L10.8141 12.8452C9.34227 13.4006 8.39806 14.7891 8.39806 16.3721V18.2327C5.8709 20.1212 4.23242 23.148 4.23242 26.5641V16.3721C4.23242 13.0673 6.25969 10.1236 9.34227 8.95724L31.3924 0.625965C32.0033 0.403794 32.6421 0.292694 33.253 0.292694C36.0302 0.292694 38.5295 2.54216 38.5295 5.56919Z" fill="#16056B"/>
<path d="M57 34.8709V37.6478C57 38.3979 56.4169 39.0087 55.6391 39.0364H51.5846C50.1127 39.0364 48.7797 37.9534 48.6687 36.5094C48.5854 35.6483 48.9186 34.8432 49.4741 34.2877C49.974 33.7599 50.6682 33.4823 51.418 33.4823H55.6114C56.4169 33.5099 57 34.1211 57 34.8709Z" fill="#16056B"/>
<path d="M51.3875 30.5592H54.2201C55.7476 30.5592 56.9973 29.3096 56.9973 27.7823V26.5603C56.9973 20.8118 52.304 16.1185 46.5552 16.1185H14.6743C12.3138 16.1185 10.1476 16.8961 8.39806 18.229C5.8709 20.1175 4.23242 23.1446 4.23242 26.5603V31.5036C4.23242 32.559 5.34325 33.2255 6.343 32.8922C7.89817 32.3644 9.53668 32.0868 11.1752 32.0868C19.5897 32.0868 26.4492 38.9462 26.4492 47.3608C26.4492 49.3603 25.9216 51.554 25.0885 53.4982C24.644 54.4979 25.3385 55.6922 26.4215 55.6922H46.5552C52.304 55.6922 56.9973 50.9988 56.9973 45.2501V44.7226C56.9973 43.195 55.7476 41.9454 54.2201 41.9454H51.8041C49.1382 41.9454 46.5832 40.3068 45.8888 37.7242C45.3333 35.6138 46 33.5587 47.3883 32.2257C48.416 31.1704 49.8323 30.5592 51.3875 30.5592ZM36.1691 30.004H22.2835C21.1449 30.004 20.2007 29.0596 20.2007 27.921C20.2007 26.7826 21.1449 25.8382 22.2835 25.8382H36.1691C37.3075 25.8382 38.2519 26.7826 38.2519 27.921C38.2519 29.0596 37.3075 30.004 36.1691 30.004Z" fill="#16056B"/>
</svg>
