<svg width="53" height="46" viewBox="0 0 53 46" fill="none" xmlns="http://www.w3.org/2000/svg">
<path d="M48.6653 37.617V44.2359H4.53925V37.617C4.53925 36.4035 5.53208 35.4107 6.74555 35.4107H46.459C47.6724 35.4107 48.6653 36.4035 48.6653 37.617Z" fill="#16056B" stroke="#16056B" stroke-width="3.30945" stroke-miterlimit="10" stroke-linecap="round" stroke-linejoin="round"/>
<path d="M15.5707 19.9666H11.1581V35.4107H15.5707V19.9666Z" fill="#16056B"/>
<path d="M24.3959 19.9666H19.9833V35.4107H24.3959V19.9666Z" fill="#16056B"/>
<path d="M33.2212 19.9666H28.8086V35.4107H33.2212V19.9666Z" fill="#16056B"/>
<path d="M42.0464 19.9666H37.6338V35.4107H42.0464V19.9666Z" fill="#16056B"/>
<path d="M50.8716 45.8906H2.33295C1.42837 45.8906 0.678223 45.1405 0.678223 44.2359C0.678223 43.3313 1.42837 42.5812 2.33295 42.5812H50.8716C51.7762 42.5812 52.5263 43.3313 52.5263 44.2359C52.5263 45.1405 51.7762 45.8906 50.8716 45.8906Z" fill="#16056B"/>
<path d="M47.2753 8.38317L27.4186 0.440484C26.9773 0.263979 26.2272 0.263979 25.7859 0.440484L5.92922 8.38317C5.15701 8.69205 4.53925 9.59663 4.53925 10.435V17.7599C4.53925 18.9733 5.53208 19.9662 6.74555 19.9662H46.459C47.6724 19.9662 48.6653 18.9733 48.6653 17.7599V10.435C48.6653 9.59663 48.0475 8.69205 47.2753 8.38317ZM26.6023 14.4505C24.771 14.4505 23.2928 12.9723 23.2928 11.141C23.2928 9.30982 24.771 7.83159 26.6023 7.83159C28.4335 7.83159 29.9117 9.30982 29.9117 11.141C29.9117 12.9723 28.4335 14.4505 26.6023 14.4505Z" fill="#16056B"/>
</svg>
