<svg width="63" height="55" viewBox="0 0 63 55" fill="none" xmlns="http://www.w3.org/2000/svg">
<path d="M35.8517 19.7307H2.195C0.995067 19.7307 0 18.7356 0 17.5357C0 16.3357 0.995067 15.3407 2.195 15.3407H35.8517C37.0516 15.3407 38.0467 16.3357 38.0467 17.5357C38.0467 18.7356 37.0516 19.7307 35.8517 19.7307Z" fill="#16056B"/>
<path d="M19.7551 43.144H13.9018C12.7019 43.144 11.7068 42.1489 11.7068 40.949C11.7068 39.749 12.7019 38.754 13.9018 38.754H19.7551C20.9551 38.754 21.9501 39.749 21.9501 40.949C21.9501 42.1489 20.9551 43.144 19.7551 43.144Z" fill="#16056B"/>
<path d="M38.7784 43.144H27.0717C25.8718 43.144 24.8767 42.1489 24.8767 40.949C24.8767 39.749 25.8718 38.754 27.0717 38.754H38.7784C39.9783 38.754 40.9734 39.749 40.9734 40.949C40.9734 42.1489 39.9783 43.144 38.7784 43.144Z" fill="#16056B"/>
<path d="M47.7339 54.8506H15.1894C3.54127 54.8506 0 51.3387 0 39.8076V15.7504C0 4.21931 3.54127 0.707306 15.1894 0.707306H35.8517C37.0516 0.707306 38.0467 1.70237 38.0467 2.90231C38.0467 4.10224 37.0516 5.09731 35.8517 5.09731H15.1894C5.99967 5.09731 4.39 6.67771 4.39 15.7504V39.7783C4.39 48.851 5.99967 50.4314 15.1894 50.4314H47.7047C56.8944 50.4314 58.5041 48.851 58.5041 39.7783V27.8375C58.5041 26.6376 59.4991 25.6425 60.6991 25.6425C61.899 25.6425 62.8941 26.6376 62.8941 27.8375V39.7783C62.9233 51.3386 59.3821 54.8506 47.7339 54.8506Z" fill="#16056B"/>
<path d="M60.7284 13.1456H44.6318C43.4318 13.1456 42.4368 12.1506 42.4368 10.9506C42.4368 9.75071 43.4318 8.75565 44.6318 8.75565H60.7284C61.9284 8.75565 62.9234 9.75071 62.9234 10.9506C62.9234 12.1506 61.9284 13.1456 60.7284 13.1456Z" fill="#16056B"/>
<path d="M52.6801 21.194C51.4802 21.194 50.4851 20.1989 50.4851 18.999V2.90231C50.4851 1.70237 51.4802 0.707306 52.6801 0.707306C53.88 0.707306 54.8751 1.70237 54.8751 2.90231V18.999C54.8751 20.1989 53.88 21.194 52.6801 21.194Z" fill="#16056B"/>
</svg>
