<svg width="74" height="74" viewBox="0 0 74 74" fill="none" xmlns="http://www.w3.org/2000/svg">
<path d="M36.62 73.24C16.4194 73.24 0 56.8206 0 36.62C0 16.4194 16.4194 0 36.62 0C56.8206 0 73.24 16.4194 73.24 36.62C73.24 56.8206 56.8206 73.24 36.62 73.24ZM36.62 5.10977C19.2468 5.10977 5.10977 19.2468 5.10977 36.62C5.10977 53.9932 19.2468 68.1302 36.62 68.1302C53.9932 68.1302 68.1302 53.9932 68.1302 36.62C68.1302 19.2468 53.9932 5.10977 36.62 5.10977Z" fill="#1CC500"/>
<path d="M31.781 48.8156C31.0997 48.8156 30.4524 48.5431 29.9755 48.0662L20.3349 38.4258C19.347 37.4379 19.347 35.8028 20.3349 34.8149C21.3228 33.827 22.9579 33.827 23.9458 34.8149L31.781 42.6499L49.2904 25.1404C50.2783 24.1525 51.9134 24.1525 52.9013 25.1404C53.8892 26.1283 53.8892 27.7634 52.9013 28.7513L33.5864 48.0662C33.1095 48.5431 32.4623 48.8156 31.781 48.8156Z" fill="#1CC500"/>
</svg>
